<svg xmlns="http://www.w3.org/2000/svg" width="145.496" height="101.154" viewBox="0 0 145.496 101.154">
  <path id="Subtraction_1" data-name="Subtraction 1" d="M-654.315-447.846c-.233,0-.477,0-.723-.014a15.9,15.9,0,0,1-6.193-1.62,14.508,14.508,0,0,1-5.338-4.483,12.791,12.791,0,0,1-2.407-6.838,1.785,1.785,0,0,1-.023-.25v-70.4a2.188,2.188,0,0,1,2.344-1.98h21.8v-13.59a2.188,2.188,0,0,1,2.344-1.98h116.663a2.188,2.188,0,0,1,2.344,1.98v86.07a2.416,2.416,0,0,1-.024.311,12.5,12.5,0,0,1-4.547,9.13c-2.693,2.164-6.545,3.382-11.451,3.62a2.748,2.748,0,0,1-.308.021h-113.6C-653.711-447.854-654.009-447.846-654.315-447.846ZM-664.3-529.47v68.48a9.65,9.65,0,0,0,5.459,8.09,10.321,10.321,0,0,0,4.061,1.08l.048.01a2.346,2.346,0,0,1,.379-.03h.852a8.367,8.367,0,0,0,2.7-.68c5.328-2.357,5.945-8.217,5.945-12.42v-64.53H-664.3Zm24.145-15.56v80.441a16.746,16.746,0,0,1-1.113,7.29,14.706,14.706,0,0,1-3.316,5.46h104.809c3.746-.179,6.6-1.033,8.478-2.541a8.942,8.942,0,0,0,3.1-6.62v-84.03Zm98.284,79.9h-38.639a2.2,2.2,0,0,1-2.356-1.99,2.2,2.2,0,0,1,2.356-1.99h38.639a2.2,2.2,0,0,1,2.356,1.99A2.2,2.2,0,0,1-541.87-465.13Zm-48.917,0h-35.821a2.188,2.188,0,0,1-2.344-1.98,2.188,2.188,0,0,1,2.344-1.98h35.821a2.188,2.188,0,0,1,2.344,1.98A2.188,2.188,0,0,1-590.787-465.13Zm48.917-11.51h-38.639a2.2,2.2,0,0,1-2.356-1.99,2.2,2.2,0,0,1,2.356-1.99h38.639a2.2,2.2,0,0,1,2.356,1.99A2.2,2.2,0,0,1-541.87-476.64Zm-47.78,0h-35.821a2.188,2.188,0,0,1-2.345-1.98,2.188,2.188,0,0,1,2.345-1.98h35.821a2.188,2.188,0,0,1,2.344,1.98A2.188,2.188,0,0,1-589.65-476.64Zm47.78-11.51h-38.639a2.2,2.2,0,0,1-2.356-1.99,2.2,2.2,0,0,1,2.356-1.99h38.639a2.2,2.2,0,0,1,2.356,1.99A2.2,2.2,0,0,1-541.87-488.15Zm-48.917,0h-35.821a2.188,2.188,0,0,1-2.344-1.98,2.188,2.188,0,0,1,2.344-1.98h35.821a2.188,2.188,0,0,1,2.344,1.98A2.188,2.188,0,0,1-590.787-488.15Zm49.781-13.62h-86.146V-532.5h86.146v30.729Zm-24.727-8.65h0l-1.239,1.74a3.682,3.682,0,0,0,1.5,1.029,5.379,5.379,0,0,0,2.025.4,6.259,6.259,0,0,0,2.567-.5,3.773,3.773,0,0,0,1.692-1.424,4.028,4.028,0,0,0,.584-2.184v-9.149h-2.689l-.105.826a2.869,2.869,0,0,0-2.32-1,3.605,3.605,0,0,0-2.065.6,3.842,3.842,0,0,0-1.363,1.71,6.457,6.457,0,0,0-.474,2.549v.105a5.542,5.542,0,0,0,1.072,3.564,3.454,3.454,0,0,0,2.813,1.332,2.8,2.8,0,0,0,2.154-.94v.3a1.769,1.769,0,0,1-1.969,2.021,2.729,2.729,0,0,1-2.18-.976Zm-33.433-4.729a4,4,0,0,0,.637,2.237,4.26,4.26,0,0,0,1.9,1.529,6.916,6.916,0,0,0,2.817.559,5.656,5.656,0,0,0,3.472-.958,3.14,3.14,0,0,0,1.265-2.637,3.678,3.678,0,0,0-2.075-3.3,11.447,11.447,0,0,0-2.18-.918,6.683,6.683,0,0,1-1.854-.826,1.13,1.13,0,0,1-.527-.892,1.126,1.126,0,0,1,.479-.928,2.116,2.116,0,0,1,1.3-.365,1.877,1.877,0,0,1,1.3.431,1.553,1.553,0,0,1,.479,1.212h3.076a3.675,3.675,0,0,0-.607-2.078,3.934,3.934,0,0,0-1.7-1.4,5.988,5.988,0,0,0-2.474-.492,6.863,6.863,0,0,0-2.549.453,4.026,4.026,0,0,0-1.753,1.265,3.027,3.027,0,0,0-.619,1.876c0,1.417.837,2.547,2.487,3.358a16.342,16.342,0,0,0,1.969.782,5.967,5.967,0,0,1,1.683.782,1.273,1.273,0,0,1,.479,1.055,1.091,1.091,0,0,1-.444.927,2,2,0,0,1-1.209.329,2.523,2.523,0,0,1-1.727-.488,1.969,1.969,0,0,1-.532-1.516Zm-6.785-8.825a5.562,5.562,0,0,0-2.931.782,5.145,5.145,0,0,0-1.977,2.219,7.619,7.619,0,0,0-.69,3.318v.72a7.361,7.361,0,0,0,.743,3.208,5.154,5.154,0,0,0,1.974,2.149,5.6,5.6,0,0,0,2.9.751,5.52,5.52,0,0,0,2.914-.779,5.152,5.152,0,0,0,1.973-2.219,7.579,7.579,0,0,0,.695-3.313v-.589a7.4,7.4,0,0,0-.716-3.274,5.228,5.228,0,0,0-1.982-2.2A5.5,5.5,0,0,0-605.951-523.973Zm56,3.463V-511h2.971v-9.509h-2.971Zm-6.952,0V-511h2.962v-6.02a1.759,1.759,0,0,1,1.793-.879l.976.07.053-2.75a2.915,2.915,0,0,0-.826-.105,2.3,2.3,0,0,0-2.083,1.4l-.1-1.221H-556.9Zm-19.459,7.119h4.227l.747,2.39h3.314l-4.729-12.8h-2.9l-4.694,12.8h3.3l.739-2.39ZM-621.033-523.8V-511h3.085v-5.1h4.974v-2.373h-4.974v-2.944h5.476V-523.8h-8.561Zm33.908,6.135v2.285h5.282v-2.285Zm38.645-6.741a1.731,1.731,0,0,0-1.186.4,1.325,1.325,0,0,0-.457,1.037,1.329,1.329,0,0,0,.457,1.038,1.735,1.735,0,0,0,1.186.4,1.736,1.736,0,0,0,1.187-.4,1.331,1.331,0,0,0,.457-1.038,1.327,1.327,0,0,0-.457-1.037A1.732,1.732,0,0,0-548.48-524.4Zm-14.5,11.293a1.391,1.391,0,0,1-1.23-.68,3.4,3.4,0,0,1-.439-1.85,3.875,3.875,0,0,1,.448-2.052,1.4,1.4,0,0,1,1.239-.707,1.539,1.539,0,0,1,1.38.65v4A1.581,1.581,0,0,1-562.982-513.11Zm-42.953-.122a2.049,2.049,0,0,1-1.854-1.011,5.564,5.564,0,0,1-.624-2.892l.008-.941c.088-2.309.913-3.48,2.453-3.48a2.052,2.052,0,0,1,1.823.988,5.41,5.41,0,0,1,.637,2.9v.589a5.4,5.4,0,0,1-.642,2.857A2.023,2.023,0,0,1-605.934-513.232Zm33.065-2.54h-2.751l1.372-4.439,1.379,4.438Z" transform="translate(669 549)" fill="#0c59db"/>
</svg>
